HIERARCHY
ROOT Hips
{
  OFFSET 3.13124 94.3669 -3.18751
  CHANNELS  6 Xposition Yposition Zposition Zrotation Xrotation Yrotation
  JOINT LeftUpLeg
  {
    OFFSET 8.64259 1.95398 -2.38835
    CHANNELS 3 Zrotation Xrotation Yrotation
    JOINT LeftLeg
    {
      OFFSET 43.7702 0 0
      CHANNELS 3 Zrotation Xrotation Yrotation
      JOINT LeftFoot
      {
        OFFSET 40.6238 0 0
        CHANNELS 3 Zrotation Xrotation Yrotation
        JOINT LeftToeBase
        {
          OFFSET 12.7242 0 0
          CHANNELS 3 Zrotation Xrotation Yrotation
          End Site
          {
            OFFSET 0 0 0
          }
        }
      }
    }
  }
  JOINT RightUpLeg
  {
    OFFSET -8.2249 1.95398 -2.59336
    CHANNELS 3 Zrotation Xrotation Yrotation
    JOINT RightLeg
    {
      OFFSET 43.5653 0 0
      CHANNELS 3 Zrotation Xrotation Yrotation
      JOINT RightFoot
      {
        OFFSET 40.6238 0 0
        CHANNELS 3 Zrotation Xrotation Yrotation
        JOINT RightToeBase
        {
          OFFSET 12.7242 0 0
          CHANNELS 3 Zrotation Xrotation Yrotation
          End Site
          {
            OFFSET 0 0 0
          }
        }
      }
    }
  }
  JOINT Spine
  {
    OFFSET 0.165834 0.87714 6.61349
    CHANNELS 3 Zrotation Xrotation Yrotation
    JOINT Spine1
    {
      OFFSET 7.38962 1.71661e-005 0
      CHANNELS 3 Zrotation Xrotation Yrotation
      JOINT Spine2
      {
        OFFSET 11.9445 1.14441e-005 0
        CHANNELS 3 Zrotation Xrotation Yrotation
        JOINT Spine3
        {
          OFFSET 14.7254 4.19617e-005 0
          CHANNELS 3 Zrotation Xrotation Yrotation
          JOINT Spine4
          {
            OFFSET 10.9679 0 0
            CHANNELS 3 Zrotation Xrotation Yrotation
            JOINT RightShoulder
            {
              OFFSET 2.46616 -1.6653 3.69651
              CHANNELS 3 Zrotation Xrotation Yrotation
              JOINT RightArm
              {
                OFFSET 13.0012 0 0
                CHANNELS 3 Zrotation Xrotation Yrotation
                JOINT RightForeArm
                {
                  OFFSET 28.7848 1.52588e-005 0
                  CHANNELS 3 Zrotation Xrotation Yrotation
                  JOINT RightHand
                  {
                    OFFSET 26.5688 1.52588e-005 0
                    CHANNELS 3 Zrotation Xrotation Yrotation
                    End Site
                    {
                      OFFSET 0 0 0
                    }
                  }
                }
              }
            }
            JOINT LeftShoulder
            {
              OFFSET 2.38034 -1.29275 -3.75231
              CHANNELS 3 Zrotation Xrotation Yrotation
              JOINT LeftArm
              {
                OFFSET 16.3182 6.10352e-005 0
                CHANNELS 3 Zrotation Xrotation Yrotation
                JOINT LeftForeArm
                {
                  OFFSET 27.0901 0 0
                  CHANNELS 3 Zrotation Xrotation Yrotation
                  JOINT LeftHand
                  {
                    OFFSET 24.5451 1.52588e-005 0
                    CHANNELS 3 Zrotation Xrotation Yrotation
                    End Site
                    {
                      OFFSET 0 0 0
                    }
                  }
                }
              }
            }
            JOINT Neck
            {
              OFFSET 5.0226 -0.0266342 0
              CHANNELS 3 Zrotation Xrotation Yrotation
              JOINT Head
              {
                OFFSET 6.69363 2.86102e-005 0
                CHANNELS 3 Zrotation Xrotation Yrotation
                End Site
                {
                  OFFSET 0 0 0
                }
              }
            }
          }
        }
      }
    }
  }
}
MOTION
Frames:	9
Frame Time:	0.0333333
-1.67776 96.6096 -78.1699 -96.7398 -30.1971 -97.133 -171.924 15.0567 87.8483 -28.812 12.0642 3.83209 43.6379 -9.59371 -8.91502 28.7808 5.89478e-006 1.33956e-006 177.657 -3.16298 83.9572 -3.82036 -3.09576 -0.184307 57.9554 18.5655 12.0703 28.7808 1.45187e-005 2.83075e-005 1.52464 9.20832 -89.1783 8.55795 3.12347 -1.45331 -3.11022 3.05645 -1.58946 -25.6745 3.41568 -0.446443 -5.66183 3.41568 -0.446455 86.653 -32.2071 -112.309 30.5547 -17.399 0.566396 -3.72935 -0.274987 -123.425 -5.37983 -0.320009 -0.0162409 -85.091 -38.2179 84.3343 58.8412 29.9119 -40.5957 -3.00834 -24.49 -100.907 -49.639 14.7262 -37.5736 15.4006 26.3948 12.4631 -20.7487 19.7779 18.4325 
-0.617381 95.3472 -80.6297 -98.9638 -44.2079 -97.347 -172.652 18.6011 88.4742 -30.508 11.2127 4.24882 46.1978 -9.19083 -8.08122 28.7808 5.89478e-006 1.33956e-006 179.398 -4.11475 87.1159 -4.28384 10.7004 0.61709 63.42 16.0553 9.24988 28.7808 1.45187e-005 2.83075e-005 1.47842 9.27088 -89.9623 8.39457 2.93932 -1.60829 -3.27422 2.86568 -1.73616 -25.8342 3.28667 -0.649796 -5.82154 3.28666 -0.649804 88.5292 -28.5048 -110.311 27.7294 -16.8075 -3.78093 -3.74773 -0.264531 -127.325 -5.37983 -0.320009 -0.0162409 -86.4137 -42.7025 82.8917 53.4346 13.0712 -42.6528 -11.4571 -21.0264 -101.781 -57.6311 14.5649 -31.9558 22.795 25.5828 9.26057 -25.0921 18.6547 16.8191 
0.303085 94.5921 -83.0651 -101.915 -56.1855 -97.3229 -173.267 21.7295 89.8783 -31.176 8.45736 4.29925 46.5108 -7.38145 -6.54734 28.7808 5.89478e-006 1.33956e-006 -177.83 -0.934201 93.0112 -10.6686 25.1807 1.63842 63.5357 6.62553 3.81372 28.7808 1.45187e-005 2.83075e-005 1.50229 9.37947 -90.8813 8.14734 2.78364 -2.24091 -3.52275 2.68232 -2.36124 -26.0754 3.32829 -1.30027 -6.06277 3.32827 -1.30028 90.1211 -24.2029 -108.925 24.9395 -12.7942 -10.1963 -3.75752 -0.258317 -129.463 -5.37983 -0.320009 -0.0162409 -88.656 -46.607 80.0645 44.0351 0.870614 -47.7 -10.9287 -17.568 -98.7 -53.1985 13.5095 -32.5426 28.1988 24.4782 8.7284 -27.6939 17.0395 15.5368 
1.18247 93.6404 -85.2872 -106.892 -65.8221 -101.912 -174.566 23.9542 88.6886 -32.3201 7.35283 5.30562 45.9277 -5.46026 -5.10027 28.7808 5.89478e-006 1.33956e-006 -177.977 6.01627 94.0806 -22.0211 29.7767 2.00139 66.8342 3.83175 1.96525 28.7808 1.45187e-005 2.83075e-005 1.42787 9.58884 -91.0073 7.73715 2.59414 -2.67701 -3.93419 2.47387 -2.78854 -26.4788 3.27858 -1.77351 -6.46615 3.27859 -1.77351 91.2707 -22.5998 -107.119 22.4635 -7.45346 -20.5424 -3.74953 -0.26371 -127.693 -5.37983 -0.320009 -0.0162409 -92.2042 -47.8407 74.8883 31.5092 -3.73181 -52.1872 -8.42744 -16.1367 -96.4278 -52.7637 13.3696 -32.5273 34.1473 23.3197 8.24076 -31.8512 14.7725 15.839 
1.77024 93.1663 -86.899 -117.051 -72.6671 -111.962 -175.841 23.7783 87.9068 -32.6538 6.45433 6.98322 45.7516 -4.52773 -4.35921 28.7808 5.89478e-006 1.33956e-006 -177.933 6.01358 94.6431 -22.7691 29.5442 1.98441 68.115 4.66209 2.31856 28.7808 1.45187e-005 2.83075e-005 1.35004 9.99109 -91.2064 6.9285 2.3456 -2.99141 -4.74401 2.21173 -3.09166 -27.28 3.13598 -2.1484 -7.26742 3.13598 -2.1484 90.7041 -23.6185 -107.923 21.2128 -0.900116 -32.9467 -3.72234 -0.278957 -121.948 -5.37983 -0.320009 -0.0162409 -96.243 -46.2883 68.2738 18.1179 -4.74068 -53.1724 -7.15499 -15.6475 -96.5881 -55.4264 13.4881 -31.1946 42.482 22.712 6.39102 -37.8546 12.7596 17.4829 
2.44221 92.7617 -88.3067 -128.22 -77.0817 -123.624 -176.919 23.8657 87.4676 -33.2349 6.72717 8.85676 46.4383 -4.41961 -4.19318 28.7808 5.89478e-006 1.33956e-006 -178.237 7.14137 94.3169 -23.8913 26.3285 1.70883 68.9852 5.53936 2.71138 28.7808 1.45187e-005 2.83075e-005 1.36567 10.3236 -91.4697 6.26132 2.25848 -3.42256 -5.41244 2.10576 -3.51853 -27.9404 3.18235 -2.58612 -7.92777 3.18236 -2.58613 90.6985 -22.0804 -108.638 21.099 5.08167 -44.1799 -3.68581 -0.294069 -114.653 -5.37983 -0.320009 -0.0162409 -100.888 -45.0385 60.7442 7.28798 -4.67786 -53.0396 -15.3633 -12.5951 -99.4972 -58.0514 12.7319 -28.3875 47.1896 23.0807 8.31608 -40.1466 11.2444 16.9915 
3.35716 92.6578 -89.4648 -137.25 -79.4651 -133.043 -177.205 24.3312 87.92 -34.0401 3.62146 9.34732 47.1221 -3.74907 -3.59776 28.7808 5.89478e-006 1.33956e-006 -178.336 7.02322 93.765 -21.8082 22.1798 1.37208 69.3903 6.72177 3.28739 28.7808 1.45187e-005 2.83075e-005 1.29194 10.6174 -91.5352 5.67527 2.09762 -3.70246 -5.99951 1.93276 -3.79104 -28.5198 3.11295 -2.90171 -8.50713 3.11296 -2.90171 89.6874 -20.0648 -111.957 21.8029 9.83351 -51.71 -3.64896 -0.304172 -107.606 -5.37983 -0.320009 -0.0162409 -102.377 -44.8741 58.4297 -2.39318 -2.21955 -54.3764 -29.0161 -7.60594 -101.487 -61.7352 13.0771 -27.2659 53.4948 25.5857 10.6002 -42.9022 11.8267 14.3219 
4.61499 92.6994 -90.2911 -141.639 -81.2939 -138.026 -177.277 24.7876 88.7447 -34.3249 -0.208362 9.21273 47.997 -4.36447 -3.983 28.7808 5.89478e-006 1.33956e-006 -178.581 6.57211 92.6418 -18.144 18.6516 1.12246 69.2491 8.15343 4.03922 28.7808 1.45187e-005 2.83075e-005 1.20611 10.8149 -91.6259 5.27712 1.89793 -3.9118 -6.39857 1.72408 -3.99139 -28.9114 2.98531 -3.1616 -8.89875 2.98531 -3.1616 88.1295 -17.063 -117.414 22.756 13.2031 -55.6832 -3.6135 -0.322045 -100.769 -5.37983 -0.320009 -0.0162409 -103.262 -44.1851 56.7886 -10.7859 -0.111648 -54.7092 -46.4644 -1.25376 -102.43 -66.5824 11.5272 -22.7857 56.7514 28.3178 13.6448 -43.0844 12.7937 11.5581 
5.97154 92.7353 -91.0316 -143.732 -83.122 -140.392 -177.146 25.6324 89.8512 -35.1392 -2.28233 9.37017 49.0908 -4.37649 -3.8831 28.7808 5.89478e-006 1.33956e-006 -178.735 5.48411 91.7152 -12.5525 15.2566 0.91249 68.2769 10.1855 5.21779 28.7808 1.45187e-005 2.83075e-005 1.01788 10.9265 -91.7304 5.04513 1.49052 -4.14361 -6.63177 1.30688 -4.20506 -29.1333 2.66625 -3.50533 -9.12063 2.66623 -3.50535 86.2357 -15.1415 -123.347 23.0644 14.323 -58.4964 -3.57306 -0.255215 -93.8648 -5.37983 -0.320009 -0.0162409 -102.968 -43.2409 56.7972 -17.4677 2.04424 -55.5387 -63.431 4.35039 -100.234 -70.9704 10.5201 -19.8738 58.2636 31.1371 16.4882 -42.3478 14.3423 8.73558 
